<svg id="Layer_1" data-name="Layer 1" xmlns="http://www.w3.org/2000/svg" viewBox="0 0 314.45 43.87"><defs><style>.cls-1{fill-rule:evenodd;}</style></defs><path class="cls-1" d="M43.9,22H.61c-.35,0-.3,0-.3-.3a19.4,19.4,0,0,1,.15-2.28.27.27,0,0,1,.12-.2c.29-.21.58-.41.86-.63a.19.19,0,0,1,.28,0l1.46,1.07c.07,0,.12.12.22.12a1.51,1.51,0,0,0-.11-.43c-.16-.51-.33-1-.5-1.52a.21.21,0,0,1,.1-.29l1.44-1.06c.07,0,.16-.07.18-.17s-.14,0-.2,0H2.45a.19.19,0,0,1-.21-.15h0c-.17-.55-.34-1.09-.52-1.63a.42.42,0,0,1,0-.29l.57-1.37c.06-.13.12-.13.22,0l.86.63c.05-.1,0-.17,0-.24-.14-.44-.28-.88-.43-1.32a.41.41,0,0,1,0-.34,2.48,2.48,0,0,1,1-1.19,6.77,6.77,0,0,0,.58-.42H3.94A20.7,20.7,0,0,1,8.11,5.29c-.18.57-.36,1.14-.55,1.72a.29.29,0,0,0,.24-.1c.49-.35,1-.69,1.45-1.06.12-.09.19-.07.31,0,.47.36,1,.71,1.44,1.06a.55.55,0,0,0,.25.13c-.12-.37-.24-.74-.35-1.1s-.18-.57-.29-.85a.22.22,0,0,1,.1-.31C11.26,4.4,11.8,4,12.4,3.56H10.52c0-.11.07-.12.11-.14A21.57,21.57,0,0,1,20.87.17a.39.39,0,0,0,.21,0h1c0,1.49,0,3,0,4.47,0,.34-.05.31.31.31h13a.55.55,0,0,1,.41.13,21.89,21.89,0,0,1,4.57,5.12l.24.39a.4.4,0,0,1-.28,0h-18c-.22,0-.26.05-.26.27,0,1.72,0,3.44,0,5.17,0,.34,0,.3.31.3H42.9c.2,0,.27.06.32.25a24.5,24.5,0,0,1,.6,3.61,3.5,3.5,0,0,0,.08.85v1ZM7.55,19.8a.39.39,0,0,0,.22-.11l1.48-1.08a.21.21,0,0,1,.29,0L11,19.69c.06,0,.11.11.22.09l-.06-.18c-.18-.57-.35-1.14-.55-1.7a.29.29,0,0,1,.13-.4l1.43-1c.05,0,.13-.06.14-.14s-.13,0-.2,0H10.3a.23.23,0,0,1-.25-.19c-.18-.58-.36-1.15-.55-1.72,0-.08,0-.18-.12-.23l-.07.18c-.18.57-.37,1.14-.54,1.71a.3.3,0,0,1-.34.25c-.59,0-1.19,0-1.79,0,0,0-.13,0-.15,0s.06.1.11.14l1.17.85c.15.12.38.19.43.36s-.09.36-.14.54C7.89,18.73,7.72,19.25,7.55,19.8Zm9.69-5.65a.33.33,0,0,0-.12.23c-.19.58-.38,1.16-.56,1.74a.21.21,0,0,1-.24.18c-.62,0-1.25,0-1.87,0-.06,0-.13,0-.18.05l.17.12c.47.35.94.71,1.43,1a.27.27,0,0,1,.12.38c-.2.57-.38,1.14-.56,1.71,0,.06-.07.12,0,.19a.43.43,0,0,0,.2-.11c.48-.35,1-.69,1.43-1.05a.26.26,0,0,1,.37,0c.48.37,1,.72,1.47,1.08.05,0,.09.09.18.07a2.17,2.17,0,0,0-.07-.24c-.18-.56-.35-1.13-.54-1.69a.22.22,0,0,1,.09-.31c.51-.36,1-.73,1.5-1.09,0,0,.12-.05.1-.12s-.1,0-.15,0c-.59,0-1.18,0-1.77,0a.31.31,0,0,1-.37-.26c-.18-.63-.39-1.25-.6-1.89ZM6.46,9.92v0l.13.11,1.49,1.09a.24.24,0,0,1,.11.33c-.11.29-.2.58-.29.87s-.22.7-.34,1.06c.11,0,.15-.06.21-.1.49-.36,1-.71,1.48-1.08.12-.1.2-.09.33,0,.47.36,1,.71,1.44,1.06a.34.34,0,0,0,.23.12c0-.08,0-.14-.06-.2-.18-.56-.35-1.13-.55-1.7a.28.28,0,0,1,.13-.39l1.43-1c.06,0,.14-.07.14-.17h-2a.22.22,0,0,1-.25-.18C9.88,9.16,9.69,8.59,9.5,8c0-.08,0-.18-.11-.23a.5.5,0,0,0-.08.2c-.18.54-.38,1.09-.53,1.64-.07.24-.17.3-.41.29C7.73,9.9,7.1,9.92,6.46,9.92ZM17.24,7.78c-.1.06-.1.15-.12.22-.19.57-.38,1.15-.56,1.72a.23.23,0,0,1-.26.2H14.47c-.06,0-.13,0-.19,0a.44.44,0,0,0,.17.16l1.46,1.06c.11.08.15.15.1.28a4.19,4.19,0,0,0-.16.46l-.48,1.51c.12,0,.17-.07.24-.12l1.46-1.07a.2.2,0,0,1,.29,0l1.5,1.09c.05,0,.09.11.19.09s0-.11,0-.16c-.19-.6-.38-1.19-.58-1.79a.21.21,0,0,1,.1-.29l1.53-1.12s.11,0,.09-.13h-2c-.13,0-.2,0-.24-.17-.09-.34-.21-.68-.32-1S17.34,8.11,17.24,7.78Zm-1.87-.73a.36.36,0,0,0,.22-.12c.5-.35,1-.71,1.48-1.08a.21.21,0,0,1,.29,0L18.86,7S19,7,19,7s0-.12,0-.17c-.18-.58-.36-1.15-.56-1.72a.25.25,0,0,1,.12-.35l1.44-1c.06-.05.14-.07.18-.18h-2c-.15,0-.23,0-.27-.19s-.15-.49-.23-.73c-.13-.41-.27-.81-.4-1.22-.1.05-.09.13-.11.19q-.3.88-.57,1.77a.21.21,0,0,1-.24.18H14.26a.33.33,0,0,0,.16.17c.49.36,1,.72,1.47,1.06.13.1.17.18.11.33-.17.49-.33,1-.49,1.48,0,.15-.09.31-.14.47Zm6.74,20.7H42.9c.22,0,.23.07.18.24-.2.67-.42,1.34-.67,2a22.2,22.2,0,0,1-1.59,3.25.33.33,0,0,1-.33.19H3.71a.31.31,0,0,1-.32-.17A22,22,0,0,1,1.13,28c-.08-.26-.07-.26.21-.26ZM8.62,39.17h27a21.28,21.28,0,0,1-10.43,4.51,21.57,21.57,0,0,1-16.6-4.45ZM58.7,17c-.35-2.87-2.1-4.07-5.25-3.58l.17,8.22c3.64-.2,5.33-1.74,5.08-4.64ZM55,15c1.09-.14,1.74.5,2,1.92a1.82,1.82,0,0,1-1.84,2.46Zm6.21,2.85,2.69-2.29a2.41,2.41,0,0,0-2.62-2q-2.79,0-2.82,3.29c0,2,1.08,3,3.17,3a3.46,3.46,0,0,0,3-1.64L63.54,17a2.22,2.22,0,0,1-2.33.9Zm-.74-2.43a1.28,1.28,0,0,1,1.78.17l-1.93,1.59a1.24,1.24,0,0,1,.15-1.76Zm8.09,5q1.89-2.76-.41-4.25c-1.48-.82-2.12-1.45-1.91-1.9.47-.28,1.3,0,2.48.87L69.47,14a3.43,3.43,0,0,0-2.11-1.25,2.45,2.45,0,0,0-2.7.67c-.46,1-.42,1.75.12,2.21a6.55,6.55,0,0,0,2.06,1.53c.94.67,1.17,1.27.7,1.81s-1.35.49-2.43-.24l-1,1.39c2,1.41,3.5,1.52,4.43.32Zm1.09.39,1.74,0-.15-5.16-1.67-.13Zm.66-7.58a1.09,1.09,0,0,0-.68.32.76.76,0,0,0-.23.62.75.75,0,0,0,.36.55,1.07,1.07,0,0,0,.72.16,1.1,1.1,0,0,0,.68-.33A.75.75,0,0,0,71,13.43a1,1,0,0,0-.72-.15Zm6.87,5,.15-2.48-2.86.05-.28,1.3,1.32.21,0,.29c-.51.64-1.15.66-1.92.08a1.5,1.5,0,0,1,.25-2.36c1.07-.65,1.88-.58,2.43.19l1.12-1.23c-.45-.79-1.4-1.15-2.84-1.07a2.84,2.84,0,0,0-3,3.17,3.07,3.07,0,0,0,2.51,3.37,3.27,3.27,0,0,0,3.12-1.5Zm1.31,2.34V17.49l1.32,4,1.59.31.53-9.06-1.52.19-.3,4.45-1.42-4-1.94-.09v1l.44,0-.14,6.21Zm6.1-2.79,2.68-2.29a2.39,2.39,0,0,0-2.61-2q-2.79,0-2.82,3.29c0,2,1.08,3,3.17,3a3.46,3.46,0,0,0,3-1.64L86.92,17a2.22,2.22,0,0,1-2.33.9Zm-.74-2.43a1.28,1.28,0,0,1,1.78.17L83.7,17.21a1.24,1.24,0,0,1,.15-1.76ZM93.06,17c-.34-2.87-2.09-4.07-5.25-3.58L88,21.62c3.64-.2,5.33-1.74,5.08-4.64Zm-3.69-2c1.08-.14,1.73.5,2,1.92a1.83,1.83,0,0,1-1.85,2.46Zm8.27,3.25.7-2L98.65,18ZM99,20l.14.78,1.8-.4-2.13-7.22-1.49.15L96.08,18.7,95,19l.15.73.73.05-.16.69,1.12.18.28-.8Zm3,.7V17.49l1.32,4,1.59.31.53-9.06-1.52.19-.3,4.45-1.42-4-1.94-.09v1l.45,0-.15,6.21ZM110.71,17c-.35-2.87-2.1-4.07-5.26-3.58l.17,8.22c3.64-.2,5.33-1.74,5.09-4.64ZM107,15c1.08-.14,1.74.5,2,1.92a1.83,1.83,0,0,1-1.85,2.46Zm7.55,5.48.63-3.1.57,2.55,1-3,.6,4.84,2.21.29-1.35-9.48-1.54.21-.8,3.76-.39-3.13-1.58.13-.85,6.53Zm6.56-2.23.71-2,.3,1.72ZM122.48,20l.14.78,1.8-.4-2.12-7.22-1.5.15-1.24,5.42-1.12.3.15.73.73.05-.16.69,1.12.18.28-.8Zm7-3c-.34-2.87-2.1-4.07-5.25-3.58l.17,8.22c3.64-.2,5.33-1.74,5.08-4.64Zm-3.69-2c1.08-.14,1.73.5,2,1.92a1.82,1.82,0,0,1-1.84,2.46Zm6.2,2.85,2.69-2.29a2.4,2.4,0,0,0-2.62-2q-2.79,0-2.81,3.29c0,2,1.07,3,3.16,3a3.45,3.45,0,0,0,3-1.64L134.36,17a2.24,2.24,0,0,1-2.34.9Zm-.74-2.43a1.28,1.28,0,0,1,1.78.17l-1.93,1.59a1.24,1.24,0,0,1,.15-1.76Zm7,5.41,1.74,0-.15-5.16-1.67-.13Zm.66-7.58a1.09,1.09,0,0,0-.68.32.79.79,0,0,0-.23.62.75.75,0,0,0,.36.55,1.07,1.07,0,0,0,.72.16,1.1,1.1,0,0,0,.68-.33A.7.7,0,0,0,140,14a.73.73,0,0,0-.35-.56,1,1,0,0,0-.72-.15Zm2.59,7.39V17.49l1.32,4,1.59.31.53-9.06-1.52.19-.3,4.45-1.42-4-1.94-.09v1l.44,0-.14,6.21ZM55.21,27.23l-.13,6,2.25-.32-.45-5.69,2.46-.2,0-2L53,25.44v1.87Zm7.46,3-.06,3.3h1.77l.06-9-1.68.11-.07,4-1.5.49L61,26.21l-1.66.21.16,3.27-.89.28.08.74.85-.11.12,2.56L61.43,33l-.17-2.64Zm4.68-.07L70,27.86a2.4,2.4,0,0,0-2.62-2c-1.86,0-2.79,1.1-2.81,3.29,0,2,1.08,3,3.16,3a3.43,3.43,0,0,0,3-1.63l-1.12-1.24a2.22,2.22,0,0,1-2.34.89Zm-.73-2.42a1.28,1.28,0,0,1,1.78.16l-1.94,1.59a1.24,1.24,0,0,1,.16-1.75Zm6.73,2.4A2.38,2.38,0,0,0,76,32.74q2.92.21,2.92-3l0-3.74-1.82-.48,0,3.9c0,1-.37,1.49-1.07,1.45s-1-.3-1-.84V25.94l-1.82.22Zm8.2,3.05a1.06,1.06,0,0,0,0-1.43.92.92,0,0,0-1.31-.05l0,.05a1,1,0,0,0,0,1.43.92.92,0,0,0,1.3,0S81.54,33.2,81.55,33.18Zm5.28-.43c1.26-1.85,1.13-3.26-.4-4.25-1.49-.82-2.12-1.45-1.92-1.91.48-.27,1.3,0,2.49.87l.75-1.15a3.41,3.41,0,0,0-2.11-1.25,2.44,2.44,0,0,0-2.71.67c-.45,1-.41,1.75.13,2.21a6.62,6.62,0,0,0,2,1.53c1,.67,1.18,1.27.7,1.81s-1.34.49-2.42-.24l-1,1.39q3,2.12,4.43.32Zm3,.43a1,1,0,0,0,0-1.43.92.92,0,0,0-1.31-.05l0,.05a1,1,0,0,0,0,1.43.92.92,0,0,0,1.3,0s0,0,0,0Zm3-2.62.71-2,.3,1.72Zm1.37,1.69.13.78,1.8-.41L94,25.41l-1.49.15L91.26,31l-1.13.3.15.73.73.05-.16.68,1.12.19.28-.8Zm3.78.93a1.06,1.06,0,0,0,0-1.43.92.92,0,0,0-1.31-.05s0,0-.05.05a1.06,1.06,0,0,0,0,1.43.93.93,0,0,0,1.31,0ZM228,18.07c2.15,0,3.23.2,3.26.71s-.3.74-.85.83L228,19.52l0,1.69,2.56-.19a1.84,1.84,0,0,0,2-2.26,1.72,1.72,0,0,0-1.45-1.53,2,2,0,0,0,1.37-1.91,2.48,2.48,0,0,0-1.11-2c-.66-.41-2-.42-3.88,0l.26,1.81a11.52,11.52,0,0,1,2.88-.2.67.67,0,0,1,.36.55q0,.72-1.38.63l-1.7,0v2h.1Zm7.65-4.3a3,3,0,0,0-2.24,1,3.28,3.28,0,0,0,0,4.58,3.11,3.11,0,0,0,4.43.05l.06-.05a3.28,3.28,0,0,0,0-4.58,3,3,0,0,0-2.25-1Zm1.11,1.78a1.64,1.64,0,0,1,0,2.21,1.41,1.41,0,0,1-2,.1l-.09-.1a1.64,1.64,0,0,1,0-2.21,1.4,1.4,0,0,1,2-.09Zm5.53,2.38-.18-1.76-3.34.71.18,1.29Zm5.62-.95c-.35-2.87-2.1-4.07-5.26-3.58l.18,8.22c3.63-.2,5.33-1.74,5.08-4.64Zm-3.7-2c1.08-.14,1.74.5,2,1.92a1.83,1.83,0,0,1-1.85,2.46Zm5.39,3.25.71-2,.3,1.72ZM250.91,20l.14.78,1.8-.4-2.12-7.22-1.49.15L248,18.7l-1.12.3.15.73.73.05-.16.69,1.12.18.28-.8Zm7.73-5.75L256.83,13l-1.53,2.84L253.74,13l-1.65,1.22,2.29,3.31-1.52,2.82,1.3,1.06Zm3.66,6.29.62-3.1L263.5,20l1-3,.6,4.84,2.22.29L266,12.59l-1.55.21-.79,3.76-.4-3.13-1.57.13-.85,6.53Zm7.64-6.74a3,3,0,0,0-2.24,1,3.28,3.28,0,0,0,0,4.58,3.11,3.11,0,0,0,4.43.05l.06-.05a3.28,3.28,0,0,0,0-4.58,3,3,0,0,0-2.25-1Zm2,2.5a1.06,1.06,0,0,1,0,.25,1.52,1.52,0,0,1-2.56,1.13l0,0a1.57,1.57,0,0,1,0-2.2,1.49,1.49,0,0,1,1.76-.3H271a1,1,0,0,0-.69.28.94.94,0,0,0-.29.69.91.91,0,0,0,.29.68,1,1,0,0,0,1.38,0,.91.91,0,0,0,.26-.49Zm2.4,4.4V17.49l1.32,4,1.6.31.53-9.06-1.52.19L276,17.38l-1.41-4-1.95-.09v1l.45,0-.15,6.21Zm6.1-2.79,2.69-2.29a2.4,2.4,0,0,0-2.62-2c-1.86,0-2.79,1.1-2.81,3.29,0,2,1.08,3,3.16,3a3.44,3.44,0,0,0,3-1.64L282.82,17a2.23,2.23,0,0,1-2.34.9Zm-.73-2.43a1.28,1.28,0,0,1,1.78.17l-1.94,1.59a1.25,1.25,0,0,1,.16-1.76Zm9.91-1.23L287.85,13l-1.53,2.84L284.75,13l-1.64,1.22,2.29,3.31-1.52,2.82,1.29,1.06Zm3.07,3.71-.17-1.76-3.34.71.17,1.29Zm2.12-.13c.94-.06,1.4.15,1.37.63a.69.69,0,0,1-.36.55,2.22,2.22,0,0,1-1.13-.05Zm-2.13,2.79c1.93.38,3.23.37,3.88,0a2.51,2.51,0,0,0,1.12-2,2.06,2.06,0,0,0-.81-1.84,2,2,0,0,0,.88-1.6c.14-1.42-.52-2.17-2-2.26l-2.56-.19,0,1.69.47,0Zm2.87-6.36c.56.08.84.36.85.82s-.52.78-1.49,1l0-1.78Zm4.08,4.05.71-2,.3,1.72ZM301,20l.14.78,1.8-.4-2.12-7.22-1.49.15-1.25,5.42L297,19l.15.73.73.05-.16.69,1.12.18.28-.8Zm4-2.06a1.5,1.5,0,0,1-.25-2.36A1.28,1.28,0,0,1,307,16L308.37,15a3.29,3.29,0,0,0-3.12-1.5,3.07,3.07,0,0,0-2.51,3.37c0,2,1.07,3,3.16,3a2.79,2.79,0,0,0,2.64-1.19l-1.12-1.24a1.76,1.76,0,0,1-2.4.48Zm3.35-3.75.38,7.54,1.58-.2V18.58l4.3,3.11.14-1.76-3.58-2.46,2.46-3L312,13l-2.24,3-.07-2.85-2.34.43,0,.8ZM233.32,30.6l.14-2.47-2.86.05-.27,1.3,1.32.21V30c-.5.64-1.14.66-1.91.08A1.5,1.5,0,0,1,230,27.7c1.07-.65,1.88-.59,2.43.19l1.12-1.24c-.45-.78-1.39-1.14-2.84-1.06a2.83,2.83,0,0,0-3,3.17,3.07,3.07,0,0,0,2.51,3.37,3.29,3.29,0,0,0,3.12-1.5Zm0-.47a2.39,2.39,0,0,0,2.67,2.61q2.91.21,2.91-3l.05-3.74-1.81-.48,0,3.9c0,1-.37,1.49-1.07,1.45s-1-.3-1-.84V25.94l-1.82.22Zm8,.43.71-2,.31,1.72Zm1.37,1.69.14.78,1.79-.41-2.12-7.21-1.49.15L239.77,31l-1.12.3.15.73.73,0-.16.69,1.11.19.29-.8Zm4.08-4.9a2.27,2.27,0,0,1,1.14.07.66.66,0,0,1,.3.58q0,.72-1.44,1.08Zm1.46,5.89,1.76-.71-1.51-2.35a2.59,2.59,0,0,0,1.24-2.12,2.53,2.53,0,0,0-.94-2.14c-.61-.47-2.14-.59-4.58-.36l.05,2,.82-.06.34,5.73,1.14,0,.17-2.45a6,6,0,0,0,.67-.17Zm3.61-2.68.71-2,.3,1.72Zm1.36,1.69.14.78,1.8-.41L253,25.41l-1.49.15L250.28,31l-1.12.3.15.73.73,0-.16.69,1.12.19.28-.8Zm3,.7V29.76l1.32,4,1.6.31.52-9.06-1.52.19-.3,4.45-1.41-4.06-2-.08v1l.45,0-.15,6.21Zm5.19-5.72-.12,6,2.25-.32-.45-5.69,2.46-.2.05-2-6.37.48v1.87Zm6.85,2.92L271,27.86a2.4,2.4,0,0,0-2.62-2c-1.86,0-2.79,1.1-2.81,3.29,0,2,1.08,3,3.16,3a3.43,3.43,0,0,0,3-1.63l-1.12-1.24a2.22,2.22,0,0,1-2.34.89Zm-.73-2.42a1.28,1.28,0,0,1,1.78.16l-1.94,1.59a1.24,1.24,0,0,1,.16-1.75Zm6.63,2.42,2.68-2.29a2.39,2.39,0,0,0-2.62-2c-1.86,0-2.79,1.1-2.81,3.29q0,3,3.17,3a3.45,3.45,0,0,0,3-1.63l-1.13-1.24a2.21,2.21,0,0,1-2.33.89Zm-.74-2.42a1.28,1.28,0,0,1,1.78.16l-1.93,1.59a1.23,1.23,0,0,1,.15-1.75Zm6,5.45a1,1,0,0,0,0-1.43.92.92,0,0,0-1.31-.05l0,.05a1,1,0,0,0,0,1.43.92.92,0,0,0,1.3,0s0,0,.05,0Zm-117.17-10c.46-.78.92-1.57,1.37-2.36l5.41-9.5a.83.83,0,0,1,.32-.41l.19.33,6.61,11.6c.08.15.17.29.26.43s.13.19.06.3a.26.26,0,0,1-.28.11l-5.32-.12c-.5,0-.52,0-.47.49A18.31,18.31,0,0,0,173,32.24,20.39,20.39,0,0,0,181.43,40a18.13,18.13,0,0,0,7.22,1.86,10.42,10.42,0,0,1,1.58.13,1,1,0,0,1,0,1.9,6.44,6.44,0,0,1-2.19,0,21.38,21.38,0,0,1-8-2.39,21.72,21.72,0,0,1-11.38-15.22c-.17-.78-.28-1.58-.39-2.38,0-.26-.14-.34-.39-.34l-5.15-.08a.89.89,0,0,1-.55-.11v-.15Zm56.1-2.56a.55.55,0,0,1-.12.39q-3.36,5.91-6.95,11.69c-.21.33-.22.33-.42,0L204,21c-.05-.1-.19-.19-.12-.32s.25-.1.4-.1l5.43,0c.27,0,.25-.14.24-.32a18.26,18.26,0,0,0-1.49-6.1A20.16,20.16,0,0,0,197.92,3.71a18.18,18.18,0,0,0-6.67-1.48,4.52,4.52,0,0,1-1.32-.13,1,1,0,0,1-.76-.94A1,1,0,0,1,190,.24a4.66,4.66,0,0,1,1.86,0A22.38,22.38,0,0,1,202.4,4a21.62,21.62,0,0,1,9.06,13.3,19.61,19.61,0,0,1,.5,3.13c0,.28.18.21.32.21l4.39,0Zm-27.27,1a17,17,0,0,1,.83-5.4,7,7,0,0,1,1.38-2.35,4.38,4.38,0,0,1,3.55-1.44,4.48,4.48,0,0,1,4,2.22,10.52,10.52,0,0,1,1.42,4.21,21.48,21.48,0,0,1-.26,7.54,8,8,0,0,1-1.48,3.3,4.84,4.84,0,0,1-7.82-.44A10.35,10.35,0,0,1,191.24,25,28.31,28.31,0,0,1,191,21.68Zm7.48.12a28,28,0,0,0-.19-2.89,5.37,5.37,0,0,0-.63-2.06,1,1,0,0,0-2,0,4.17,4.17,0,0,0-.47,1.32,22.47,22.47,0,0,0-.18,6.65,5.72,5.72,0,0,0,.72,2.43,1,1,0,0,0,1.82,0,3.78,3.78,0,0,0,.52-1.26A18.77,18.77,0,0,0,198.52,21.8ZM183.9,12.47a4.87,4.87,0,0,1,5,5.59,5.06,5.06,0,0,1-1.72,3.39c-.19.17-.11.23,0,.34A6.83,6.83,0,0,1,189,24.43c.94,2.45-.59,6.72-4.47,7.05a7.1,7.1,0,0,1-2.6-.2,5.26,5.26,0,0,1-3.73-4c-.07-.28,0-.46.3-.54l2.61-.71a.41.41,0,0,1,.57.31c0,.13.09.25.14.37A1.81,1.81,0,0,0,183.78,28a2,2,0,0,0,1.61-1.67,3.64,3.64,0,0,0,0-1.47,2,2,0,0,0-2.06-1.53l-.71,0a.36.36,0,0,1-.37-.4c0-.74,0-1.47,0-2.21,0-.29.14-.41.43-.39a3.1,3.1,0,0,0,1.21-.15,2.26,2.26,0,0,0,.76-3.72,1.53,1.53,0,0,0-2.4.65c-.25.7-.37.75-1.07.54s-1.41-.4-2.12-.57c-.32-.08-.42-.22-.33-.57a5.36,5.36,0,0,1,4.62-3.92Zm10.73,31.45a.93.93,0,0,1-.95-.89v0a1,1,0,0,1,.92-1h0a1,1,0,0,1,1,.93A1,1,0,0,1,194.63,43.92ZM199,42a1,1,0,0,1,.95.94,1,1,0,0,1-.94.95h0A.92.92,0,0,1,198,43v-.06A1,1,0,0,1,199,42ZM181.31,2.12a.92.92,0,0,1-.94-.93.94.94,0,0,1,.93-1h0a1,1,0,0,1,1,.94.94.94,0,0,1-.92,1Zm4.34,0a1,1,0,0,1-1-.93,1,1,0,0,1,.94-1,.94.94,0,0,1,1,.94v0a1,1,0,0,1-.94.94Z" transform="translate(-0.3 -0.13)"/></svg>